<svg xmlns="http://www.w3.org/2000/svg" version="1.1" xmlns:xlink="http://www.w3.org/1999/xlink" xmlns:svgjs="http://svgjs.dev/svgjs" width="1000" height="194" viewBox="0 0 1000 194"><g transform="matrix(1,0,0,1,-0.6060606060606233,-0.39090485692554466)"><svg viewBox="0 0 396 77" data-background-color="#fce44d" preserveAspectRatio="xMidYMid meet" height="194" width="1000" xmlns="http://www.w3.org/2000/svg" xmlns:xlink="http://www.w3.org/1999/xlink"><g id="tight-bounds" transform="matrix(1,0,0,1,0.2400000000000091,0.1551529586766378)"><svg viewBox="0 0 395.52 76.68969408264675" height="76.68969408264675" width="395.52"><g><svg viewBox="0 0 503.0916067762361 97.5473842516605" height="76.68969408264675" width="395.52"><g transform="matrix(1,0,0,1,0,27.54276961660516)"><svg viewBox="0 0 395.52 42.461845018450184" height="42.461845018450184" width="395.52"><g id="textblocktransform"><svg viewBox="0 0 395.52 42.461845018450184" height="42.461845018450184" width="395.52" id="textblock"><g><svg viewBox="0 0 395.52 42.461845018450184" height="42.461845018450184" width="395.52"><g transform="matrix(1,0,0,1,0,0)"><svg width="395.52" viewBox="3.05 -35.6 433.57 46.55" height="42.461845018450184" data-palette-color="#374151"><path d="M23.95 0L3.05 0 3.05-35 23.35-35Q25.95-35 28.08-33.85 30.2-32.7 31.48-30.65 32.75-28.6 32.75-25.8L32.75-25.8Q32.75-24.15 32.13-22.65 31.5-21.15 30.38-20 29.25-18.85 27.8-18.15L27.8-18.15Q29.5-17.45 30.83-16.15 32.15-14.85 32.93-13.15 33.7-11.45 33.7-9.5L33.7-9.5Q33.7-6.65 32.38-4.5 31.05-2.35 28.85-1.18 26.65 0 23.95 0L23.95 0ZM11.45-14.35L11.45-6.95 21.75-6.95Q22.8-6.95 23.63-7.45 24.45-7.95 24.95-8.8 25.45-9.65 25.45-10.65L25.45-10.65Q25.45-11.7 24.95-12.53 24.45-13.35 23.63-13.85 22.8-14.35 21.75-14.35L21.75-14.35 11.45-14.35ZM11.45-28L11.45-21.05 20.9-21.05Q21.9-21.05 22.68-21.53 23.45-22 23.9-22.78 24.35-23.55 24.35-24.5L24.35-24.5Q24.35-25.5 23.9-26.28 23.45-27.05 22.68-27.53 21.9-28 20.9-28L20.9-28 11.45-28ZM58.7 0L48.95 0Q45.7 0 43.25-1.45 40.8-2.9 39.45-5.3 38.1-7.7 38.1-10.6L38.1-10.6 38.1-35 46.5-35 46.5-10Q46.5-8.8 47.35-7.9 48.2-7 49.45-7L49.45-7 58.7-7 58.7 0ZM62.65 0L53.9 0 65.25-30.95Q66.1-33.25 68.05-34.43 70-35.6 72.45-35.6L72.45-35.6Q74.9-35.6 76.85-34.48 78.8-33.35 79.65-31L79.65-31 91.05 0 82 0 79.8-6.75 64.95-6.75 62.65 0ZM71.85-27.65L67.1-13.7 77.65-13.7 73.2-27.65Q73.1-27.95 72.92-28.08 72.75-28.2 72.5-28.2L72.5-28.2Q72.25-28.2 72.07-28.05 71.9-27.9 71.85-27.65L71.85-27.65ZM114.99 0L109.59 0Q105.29-0.05 101.84-1.4 98.39-2.75 95.99-5.1 93.59-7.45 92.29-10.63 90.99-13.8 90.99-17.5L90.99-17.5Q90.99-21.2 92.29-24.38 93.59-27.55 96.02-29.9 98.44-32.25 101.87-33.6 105.29-34.95 109.59-35L109.59-35 114.99-35 114.99-28 109.79-28Q107.44-27.95 105.52-27.15 103.59-26.35 102.22-24.95 100.84-23.55 100.12-21.65 99.39-19.75 99.39-17.5L99.39-17.5Q99.39-15.25 100.12-13.35 100.84-11.45 102.22-10.05 103.59-8.65 105.52-7.85 107.44-7.05 109.79-7L109.79-7 114.99-7 114.99 0ZM128.14 0L119.74 0 119.74-35 128.14-35 128.14-20.85 133.94-20.85Q135.39-20.85 136.62-21.45 137.84-22.05 138.54-23.25 139.24-24.45 139.24-26.05L139.24-26.05 139.24-35 147.64-35 147.64-26Q147.64-22.65 146.04-20 144.44-17.35 141.84-15.75L141.84-15.75 145.64-7.75Q145.79-7.35 146.17-7.15 146.54-6.95 146.99-6.95L146.99-6.95 150.14-6.95 150.14 0 145.29 0Q142.54 0 140.84-1.05 139.14-2.1 138.24-3.95L138.24-3.95 133.49-13.85Q133.09-13.85 132.74-13.85 132.39-13.85 131.99-13.85L131.99-13.85 128.14-13.85 128.14 0ZM159.44 10.95L159.44 10.95Q156.39 10.95 154.31 9.8 152.24 8.65 151.19 6.65 150.14 4.65 150.14 2.1L150.14 2.1Q150.14-0.45 151.14-3.33 152.14-6.2 154.46-9 156.79-11.8 160.74-14.2L160.74-14.2 160.74-28 153.79-28 153.79-35 168.69-35 168.69 0.4Q168.69 3.55 167.69 5.93 166.69 8.3 164.64 9.63 162.59 10.95 159.44 10.95ZM158.99 3.75L158.99 3.75Q159.59 3.75 160.04 3.4 160.49 3.05 160.71 2.43 160.94 1.8 160.94 0.95L160.94 0.95 160.94-6.7Q158.99-5.1 158.16-3.58 157.34-2.05 157.16-0.85 156.99 0.35 156.99 1.05L156.99 1.05Q156.99 2.35 157.59 3.05 158.19 3.75 158.99 3.75ZM180.49 0L171.74 0 183.09-30.95Q183.94-33.25 185.89-34.43 187.84-35.6 190.29-35.6L190.29-35.6Q192.74-35.6 194.69-34.48 196.64-33.35 197.49-31L197.49-31 208.89 0 199.84 0 197.64-6.75 182.79-6.75 180.49 0ZM189.69-27.65L184.94-13.7 195.49-13.7 191.04-27.65Q190.94-27.95 190.76-28.08 190.59-28.2 190.34-28.2L190.34-28.2Q190.09-28.2 189.91-28.05 189.74-27.9 189.69-27.65L189.69-27.65ZM232.83 0L227.43 0Q223.13-0.05 219.68-1.4 216.23-2.75 213.83-5.1 211.43-7.45 210.13-10.63 208.83-13.8 208.83-17.5L208.83-17.5Q208.83-21.2 210.13-24.38 211.43-27.55 213.86-29.9 216.28-32.25 219.71-33.6 223.13-34.95 227.43-35L227.43-35 232.83-35 232.83-28 227.63-28Q225.28-27.95 223.36-27.15 221.43-26.35 220.06-24.95 218.68-23.55 217.96-21.65 217.23-19.75 217.23-17.5L217.23-17.5Q217.23-15.25 217.96-13.35 218.68-11.45 220.06-10.05 221.43-8.65 223.36-7.85 225.28-7.05 227.63-7L227.63-7 232.83-7 232.83 0ZM245.98 0L237.58 0 237.58-35 245.98-35 245.98-20.85 251.78-20.85Q253.23-20.85 254.46-21.45 255.68-22.05 256.38-23.25 257.08-24.45 257.08-26.05L257.08-26.05 257.08-35 265.48-35 265.48-26Q265.48-22.65 263.88-20 262.28-17.35 259.68-15.75L259.68-15.75 263.48-7.75Q263.63-7.35 264.01-7.15 264.38-6.95 264.83-6.95L264.83-6.95 267.98-6.95 267.98 0 263.13 0Q260.38 0 258.68-1.05 256.98-2.1 256.08-3.95L256.08-3.95 251.33-13.85Q250.93-13.85 250.58-13.85 250.23-13.85 249.83-13.85L249.83-13.85 245.98-13.85 245.98 0ZM287.78 0L271.63 0 271.63-7 286.58-7Q287.58-7 288.38-7.5 289.18-8 289.65-8.8 290.13-9.6 290.13-10.55L290.13-10.55Q290.13-11.55 289.65-12.35 289.18-13.15 288.38-13.65 287.58-14.15 286.58-14.15L286.58-14.15 281.18-14.15Q278.13-14.15 275.63-15.35 273.13-16.55 271.65-18.88 270.18-21.2 270.18-24.45L270.18-24.45Q270.18-27.65 271.58-30 272.98-32.35 275.38-33.68 277.78-35 280.68-35L280.68-35 296.13-35 296.13-28 281.63-28Q280.73-28 279.98-27.55 279.23-27.1 278.83-26.35 278.43-25.6 278.43-24.7L278.43-24.7Q278.43-23.8 278.83-23.08 279.23-22.35 279.98-21.9 280.73-21.45 281.63-21.45L281.63-21.45 287.28-21.45Q290.63-21.45 293.1-20.18 295.58-18.9 296.95-16.63 298.33-14.35 298.33-11.3L298.33-11.3Q298.33-7.7 296.9-5.18 295.48-2.65 293.08-1.33 290.68 0 287.78 0L287.78 0ZM308.68 0L299.93 0 311.28-30.95Q312.13-33.25 314.08-34.43 316.03-35.6 318.48-35.6L318.48-35.6Q320.93-35.6 322.88-34.48 324.83-33.35 325.68-31L325.68-31 337.08 0 328.03 0 325.83-6.75 310.98-6.75 308.68 0ZM317.88-27.65L313.13-13.7 323.68-13.7 319.23-27.65Q319.13-27.95 318.95-28.08 318.78-28.2 318.53-28.2L318.53-28.2Q318.28-28.2 318.1-28.05 317.93-27.9 317.88-27.65L317.88-27.65ZM350.77 0.6L350.77 0.6Q348.32 0.6 346.37-0.53 344.42-1.65 343.57-4.05L343.57-4.05 332.92-35 341.97-35 350.07-7.9Q350.17-7.6 350.35-7.45 350.52-7.3 350.77-7.3L350.77-7.3Q351.02-7.3 351.2-7.45 351.37-7.6 351.47-7.9L351.47-7.9 359.72-35 368.57-35 357.97-4.05Q357.12-1.7 355.17-0.55 353.22 0.6 350.77 0.6ZM386.42 0.6L386.42 0.6Q383.97 0.6 382.02-0.53 380.07-1.65 379.22-4.05L379.22-4.05 368.57-35 377.62-35 385.72-7.9Q385.82-7.6 386-7.45 386.17-7.3 386.42-7.3L386.42-7.3Q386.67-7.3 386.85-7.45 387.02-7.6 387.12-7.9L387.12-7.9 395.37-35 404.22-35 393.62-4.05Q392.77-1.7 390.82-0.55 388.87 0.6 386.42 0.6ZM426.02 0L417.67 0 417.67-9.55Q414.47-10.3 412.09-12.18 409.72-14.05 408.42-16.93 407.12-19.8 407.12-23.55L407.12-23.55 407.12-35 415.32-35 415.32-23.1Q415.32-21.2 416.12-19.63 416.92-18.05 418.39-17.13 419.87-16.2 421.87-16.2L421.87-16.2Q423.87-16.2 425.34-17.13 426.82-18.05 427.62-19.63 428.42-21.2 428.42-23.1L428.42-23.1 428.42-35 436.62-35 436.62-23.55Q436.62-19.8 435.32-16.93 434.02-14.05 431.62-12.15 429.22-10.25 426.02-9.55L426.02-9.55 426.02 0Z" opacity="1" transform="matrix(1,0,0,1,0,0)" fill="#374151" class="wordmark-text-0" data-fill-palette-color="primary" id="text-0"></path></svg></g></svg></g></svg></g></svg></g><g transform="matrix(1,0,0,1,405.5442225245756,0)"><svg viewBox="0 0 97.5473842516605 97.5473842516605" height="97.5473842516605" width="97.5473842516605"><g><svg></svg></g><g id="icon-0"><svg viewBox="0 0 97.5473842516605 97.5473842516605" height="97.5473842516605" width="97.5473842516605"><g><rect width="88.69586234734317" height="88.69586234734317" x="4.425760952158669" y="4.425760952158669" fill="#000000" data-fill-palette-color="accent"></rect><rect width="88.69586234734317" height="88.69586234734317" x="-1.7763568394002505e-15" y="-1.7763568394002505e-15" fill="#000000" opacity="0.5" data-fill-palette-color="accent"></rect></g><g transform="matrix(1,0,0,1,14.6124244702145,12.645031291881914)"><svg viewBox="0 0 68.3225353112315 72.25732166789668" height="72.25732166789668" width="68.3225353112315"><g><svg xmlns="http://www.w3.org/2000/svg" xmlns:xlink="http://www.w3.org/1999/xlink" version="1.1" x="0" y="0" viewBox="0.756 0.10899999999999999 22.486001068570907 23.781" style="enable-background:new 0 0 24 24;" xml:space="preserve" height="72.25732166789668" width="68.3225353112315" class="icon-z$-0" data-fill-palette-color="background" id="z$-0"><g fill="#fce44d" data-fill-palette-color="background"><path d="M3.998 1.735H3.96c-0.124 0-0.244 0.036-0.348 0.105L3.405 1.978 3.197 1.84C3.093 1.771 2.973 1.735 2.849 1.735H2.811c-0.346 0-0.627 0.281-0.627 0.627 0 0.154 0.056 0.302 0.158 0.416l1.062 1.195 1.062-1.195c0.102-0.115 0.158-0.263 0.158-0.417C4.625 2.016 4.344 1.735 3.998 1.735z" fill="#fce44d" data-fill-palette-color="background"></path><path d="M21.678 6.972h-5.146V5.403c0-0.866-0.704-1.571-1.57-1.571H13.08V1.67c0-0.86-0.7-1.561-1.56-1.561H2.327c-0.866 0-1.571 0.701-1.571 1.561v13.789c0 0.86 0.704 1.56 1.571 1.56h1.882v2.163c0 0.866 0.7 1.571 1.559 1.571h5.153v1.571c0 0.863 0.702 1.566 1.564 1.566h9.192c0.863 0 1.565-0.703 1.565-1.566V8.537C23.243 7.675 22.542 6.972 21.678 6.972zM4.209 5.403v10.783H2.327c-0.407 0-0.739-0.326-0.739-0.727V1.67c0-0.402 0.332-0.728 0.739-0.728h9.193c0.402 0 0.728 0.326 0.728 0.728v2.162H5.769C4.909 3.832 4.209 4.537 4.209 5.403zM10.922 8.537v11.383H5.769c-0.401 0-0.728-0.331-0.728-0.738V5.403c0-0.407 0.327-0.738 0.728-0.738h9.193c0.407 0 0.738 0.331 0.738 0.738v1.569h-3.214C11.624 6.972 10.922 7.675 10.922 8.537zM22.412 22.325c0 0.404-0.329 0.733-0.733 0.733h-9.192c-0.404 0-0.733-0.329-0.733-0.733V8.537c0-0.404 0.329-0.732 0.733-0.732h9.192c0.404 0 0.733 0.328 0.733 0.732V22.325z" fill="#fce44d" data-fill-palette-color="background"></path><path d="M8.058 5.446H6.7c-0.057 0-0.104 0.046-0.104 0.104v0.379c0 0.058 0.047 0.104 0.104 0.104h0.435v1.413c0 0.151-0.123 0.275-0.275 0.275-0.152 0-0.275-0.124-0.275-0.275 0-0.058-0.047-0.104-0.104-0.104H6.102c-0.057 0-0.104 0.046-0.104 0.104 0 0.475 0.387 0.862 0.862 0.862S7.722 7.92 7.722 7.445V6.032h0.336c0.057 0 0.104-0.046 0.104-0.104V5.55C8.162 5.492 8.116 5.446 8.058 5.446z" fill="#fce44d" data-fill-palette-color="background"></path><path d="M17.172 12.937c-0.065-0.059-0.107-0.063-0.176 0-0.695 0.635-1.377 1.281-1.848 2.111-0.253 0.445-0.312 0.906-0.096 1.386 0.179 0.397 0.498 0.594 0.932 0.585 0.284-0.006 0.532-0.125 0.78-0.238 0.168 0.503-0.203 0.806-0.432 1.19 0.521 0 0.998 0 1.506 0-0.237-0.384-0.605-0.694-0.435-1.204 0.182 0.098 0.366 0.186 0.568 0.226 0.612 0.122 1.093-0.201 1.235-0.812 0.098-0.419 0.009-0.8-0.198-1.158C18.536 14.207 17.861 13.565 17.172 12.937z" fill="#fce44d" data-fill-palette-color="background"></path><path d="M13.541 8.749c-0.03-0.028-0.05-0.029-0.082 0-0.325 0.297-0.644 0.599-0.865 0.988-0.118 0.208-0.146 0.424-0.045 0.649 0.084 0.186 0.233 0.278 0.436 0.274 0.133-0.003 0.249-0.059 0.365-0.111 0.079 0.235-0.095 0.377-0.202 0.557 0.244 0 0.467 0 0.705 0-0.111-0.18-0.283-0.325-0.204-0.563 0.085 0.046 0.171 0.087 0.266 0.106 0.286 0.057 0.511-0.094 0.578-0.38 0.046-0.196 0.004-0.374-0.093-0.542C14.179 9.343 13.864 9.043 13.541 8.749z" fill="#fce44d" data-fill-palette-color="background"></path><path d="M20.647 19.972c-0.03-0.028-0.05-0.029-0.082 0-0.325 0.297-0.644 0.599-0.865 0.988-0.118 0.208-0.146 0.424-0.045 0.649 0.084 0.186 0.233 0.278 0.436 0.274 0.133-0.003 0.249-0.059 0.365-0.111 0.079 0.235-0.095 0.377-0.202 0.557 0.244 0 0.467 0 0.705 0-0.111-0.18-0.283-0.325-0.204-0.563 0.085 0.046 0.171 0.087 0.266 0.106 0.286 0.057 0.511-0.094 0.578-0.38 0.046-0.196 0.004-0.374-0.093-0.542C21.285 20.566 20.97 20.265 20.647 19.972z" fill="#fce44d" data-fill-palette-color="background"></path></g></svg></g></svg></g></svg></g></svg></g></svg></g><defs></defs></svg><rect width="395.52" height="76.68969408264675" fill="none" stroke="none" visibility="hidden"></rect></g></svg></g></svg>