<svg xmlns="http://www.w3.org/2000/svg" version="1.1" xmlns:xlink="http://www.w3.org/1999/xlink" xmlns:svgjs="http://svgjs.dev/svgjs" width="1000" height="999" viewBox="0 0 1000 999"><g transform="matrix(1,0,0,1,-0.215743440233382,-0.21552769679306039)"><svg viewBox="0 0 343 343" data-background-color="#f9e17e" preserveAspectRatio="xMidYMid meet" height="999" width="1000" xmlns="http://www.w3.org/2000/svg" xmlns:xlink="http://www.w3.org/1999/xlink"><g id="tight-bounds" transform="matrix(1,0,0,1,0.0740000000000407,0.07400000000001228)"><svg viewBox="0 0 342.85155851775386 342.85155851775386" height="342.85155851775386" width="342.85155851775386"><g><svg></svg></g><g><svg viewBox="0 0 342.85155851775386 342.85155851775386" height="342.85155851775386" width="342.85155851775386"><g><path d="M0 171.426c0-94.676 76.75-171.426 171.426-171.426 94.676 0 171.426 76.75 171.426 171.426 0 94.676-76.75 171.426-171.426 171.426-94.676 0-171.426-76.75-171.426-171.426zM171.426 340.782c93.533 0 169.356-75.823 169.356-169.356 0-93.533-75.823-169.356-169.356-169.356-93.533 0-169.356 75.823-169.356 169.356 0 93.533 75.823 169.356 169.356 169.356z" data-fill-palette-color="tertiary" fill="#454545" stroke="transparent"></path><ellipse rx="164.56874808852186" ry="164.56874808852186" cx="171.42577925887693" cy="171.42577925887693" fill="#454545" stroke="transparent" stroke-width="0" fill-opacity="1" data-fill-palette-color="tertiary"></ellipse></g><g transform="matrix(1,0,0,1,64.84655864529837,120.58115554207428)"><svg viewBox="0 0 213.1584412271571 101.68924743360529" height="101.68924743360529" width="213.1584412271571"><g><svg viewBox="0 0 213.1584412271571 101.68924743360529" height="101.68924743360529" width="213.1584412271571"><g><svg viewBox="0 0 213.1584412271571 101.68924743360529" height="101.68924743360529" width="213.1584412271571"><g transform="matrix(1,0,0,1,0,61.27342215810585)"><svg viewBox="0 0 213.1584412271571 40.415825275499444" height="40.415825275499444" width="213.1584412271571"><g id="textblocktransform"><svg viewBox="0 0 213.1584412271571 40.415825275499444" height="40.415825275499444" width="213.1584412271571" id="textblock"><g><svg viewBox="0 0 213.1584412271571 22.953420200976026" height="22.953420200976026" width="213.1584412271571"><g transform="matrix(1,0,0,1,0,0)"><svg width="213.1584412271571" viewBox="2.86 -36.04 418.49 45.07" height="22.953420200976026" data-palette-color="#f9e17e"><path d="M23.36-19.02L23.36-25.93 15.36-25.93 15.36-32.4 27.88-32.4 34.38-25.93 34.38-19.34 31.13-16.09 34.38-12.84 34.38-6.47 27.88 0 15.36 0 15.36-6.47 23.36-6.47 23.36-13.38 15.36-13.38 15.36-19.02 23.36-19.02ZM2.86 0L2.86-32.4 13.65-32.4 13.65 0 2.86 0ZM54.66-6.47L54.66 0 45.09 0 39.04-6.05 39.04-35.82 49.83-35.82 49.83-6.47 54.66-6.47ZM85.05 0L74.51 0 74.51-19.46 59.15-19.46 59.15-22.68 62.4-25.93 78.58-25.93 85.05-19.46 85.05 0ZM61.32-15.09L72.8-15.09 72.8-10.6 67.23-10.6 67.23-6.05 72.8-6.05 72.8-3.2 69.58 0 61.32 0 56.98-4.27 56.98-10.77 61.32-15.09ZM100.48-25.93L100.48 0 96.16 0 89.69-6.47 89.69-19.46 96.16-25.93 100.48-25.93ZM106.97-19.46L102.19-19.46 102.19-25.93 111.3-25.93 117.77-19.46 117.77-15.58 106.97-15.58 106.97-19.46ZM111.3 0L102.19 0 102.19-6.05 106.97-6.05 106.97-9.3 117.77-9.3 117.77-6.47 111.3 0ZM133-35.82L133 0 122.21 0 122.21-35.82 133-35.82ZM150.82-25.9L134.68-3.66 134.68-18.46 139.66-25.88 150.82-25.9ZM144.25-13.82L151.38 0 139.66 0 137.88-5.22 144.25-13.82ZM149.26 8.64L149.26 2.15 154.26 2.15 154.26-25.93 165.08-25.93 165.08 2.15 158.58 8.64 149.26 8.64ZM154.26-29.15L154.26-36.04 165.05-36.04 165.05-29.15 154.26-29.15ZM197.81 0L187.27 0 187.27-19.46 171.91-19.46 171.91-22.68 175.16-25.93 191.34-25.93 197.81-19.46 197.81 0ZM174.08-15.09L185.56-15.09 185.56-10.6 179.99-10.6 179.99-6.05 185.56-6.05 185.56-3.2 182.33 0 174.08 0 169.74-4.27 169.74-10.77 174.08-15.09ZM213.24-25.93L213.24 0 208.92 0 202.45-6.47 202.45-19.46 208.92-25.93 213.24-25.93ZM219.73-19.46L214.95-19.46 214.95-25.93 224.05-25.93 230.52-19.46 230.52-15.58 219.73-15.58 219.73-19.46ZM224.05 0L214.95 0 214.95-6.05 219.73-6.05 219.73-9.3 230.52-9.3 230.52-6.47 224.05 0ZM245.76-35.82L245.76 0 234.97 0 234.97-35.82 245.76-35.82ZM263.58-25.9L247.44-3.66 247.44-18.46 252.42-25.88 263.58-25.9ZM257.01-13.82L264.14 0 252.42 0 250.64-5.22 257.01-13.82ZM291.68 0L287.33 0 287.33-12.13 273.32-12.13 266.82-18.63 266.82-25.93 273.32-32.4 276.98-32.4 276.98-20.9 291.87-20.9 298.15-14.4 298.15-6.47 291.68 0ZM287.33-26.56L278.69-26.56 278.69-32.4 291.65-32.4 297.27-26.76 297.27-23.32 287.33-23.32 287.33-26.56ZM266.82-6.47L266.82-9.72 277.61-9.72 277.61-5.86 285.62-5.86 285.62 0 272.27 0 266.82-6.47ZM330.69 0L320.14 0 320.14-19.46 304.78-19.46 304.78-22.68 308.03-25.93 324.22-25.93 330.69-19.46 330.69 0ZM306.96-15.09L318.43-15.09 318.43-10.6 312.87-10.6 312.87-6.05 318.43-6.05 318.43-3.2 315.21 0 306.96 0 302.61-4.27 302.61-10.77 306.96-15.09ZM342.36 0L332.66-25.93 343.38-25.93 352.61 0 342.36 0ZM362.45-25.93L353.71-1.44 348.87-15.16 352.37-25.93 362.45-25.93ZM371.45 0L361.76-25.93 372.48-25.93 381.71 0 371.45 0ZM391.55-25.93L382.81-1.44 377.97-15.16 381.46-25.93 391.55-25.93ZM421.35-25.93L408.2 9.03 397.84 9.03 410.98-25.93 421.35-25.93ZM400.43-2.17L390.86-25.93 401.63-25.93 405.27-15.38 400.43-2.17Z" opacity="1" transform="matrix(1,0,0,1,0,0)" fill="#f9e17e" class="wordmark-text-0" data-fill-palette-color="quaternary" id="text-0"></path></svg></g></svg></g><g transform="matrix(1,0,0,1,0,28.372171828341642)"><svg viewBox="0 0 213.1584412271571 12.043653447157803" height="12.043653447157803" width="213.1584412271571"><g transform="matrix(1,0,0,1,0,0)"><svg width="213.1584412271571" viewBox="3.52 -34.52 877.96 49.61" height="12.043653447157803" data-palette-color="#f9e17e"><path d="M3.88 0L3.88-3.91 10.25-3.91 10.25-26.49 3.52-26.49 3.52-30.4 22.78-30.4Q25.59-30.4 27.84-30.3 30.1-30.2 31.93-29.86L31.93-29.86Q34.08-29.44 35.6-28.67 37.11-27.91 38.05-26.81 38.99-25.71 39.42-24.32 39.84-22.92 39.84-21.26L39.84-21.26Q39.84-19.9 39.37-18.58 38.89-17.26 37.96-16.1 37.04-14.94 35.63-14.01 34.23-13.09 32.37-12.5L32.37-12.5Q30.4-11.91 27.99-11.76 25.59-11.6 22.78-11.6L22.78-11.6 15.8-11.6 15.8-3.91 24.49-3.91 24.49 0 3.88 0ZM17.5-5.37L17.5-9.89 21.41-9.89Q23.56-9.89 25.12-9.91 26.68-9.94 27.92-10.02 29.15-10.11 30.14-10.27 31.13-10.42 32.13-10.67L32.13-10.67Q34.38-11.21 36.13-12.19 37.89-13.18 39.1-14.56 40.31-15.94 40.94-17.69 41.58-19.43 41.58-21.48L41.58-21.48Q41.58-24 40.61-25.82 39.65-27.64 37.6-29.1L37.6-29.1Q38.84-28.56 39.79-27.72 40.75-26.88 41.38-25.85 42.02-24.83 42.33-23.71 42.65-22.58 42.65-21.48L42.65-21.48Q42.65-19.31 41.94-17.41 41.24-15.5 39.88-13.96 38.53-12.43 36.54-11.32 34.55-10.21 31.96-9.64L31.96-9.64Q31.18-9.47 30.2-9.34 29.22-9.2 27.95-9.12 26.68-9.03 25.07-9 23.46-8.96 21.41-8.96L21.41-8.96 18.48-8.96 18.48-5.37 17.5-5.37ZM15.8-15.5L23.83-15.5Q25.9-15.5 27.44-15.6 28.98-15.7 30.15-16.04L30.15-16.04Q32.25-16.63 33.07-17.9 33.89-19.17 33.89-21.07L33.89-21.07Q33.89-22.53 33.35-23.56 32.81-24.58 31.62-25.24 30.42-25.9 28.5-26.2 26.59-26.49 23.83-26.49L23.83-26.49 15.8-26.49 15.8-15.5ZM17.5-16.97L17.5-24.78 23.66-24.78Q27.39-24.78 29.36-24.37 31.32-23.95 31.93-22.92L31.93-22.92Q31.45-23.14 30.77-23.32 30.1-23.49 29.13-23.61 28.15-23.73 26.82-23.79 25.49-23.85 23.66-23.85L23.66-23.85 18.48-23.85 18.48-16.97 17.5-16.97ZM4.83-23.85L4.83-24.78 8.72-24.78 8.72-23.85 4.83-23.85ZM5.44 1.71L26.25 1.71 26.25-2.54 27.22-2.54 27.22 2.64 5.44 2.64 5.44 1.71ZM46.41 0L46.41-3.66 51.78-3.66 51.78-30.4 46.41-30.4 46.41-34.06 57.03-34.06 57.03-3.66 62.4-3.66 62.4 0 46.41 0ZM58.74-5.13L58.74-32.81 59.71-32.81 59.71-5.13 58.74-5.13ZM47.87-27.76L47.87-28.69 50.75-28.69 50.75-27.76 47.87-27.76ZM47.87 1.71L64.16 1.71 64.16-2.29 65.13-2.29 65.13 2.64 47.87 2.64 47.87 1.71ZM69.65-11.69L69.65-11.69Q69.65-13.96 70.6-16.21 71.55-18.46 73.42-20.25 75.29-22.05 78.05-23.17 80.81-24.29 84.39-24.29L84.39-24.29Q85.54-24.29 86.85-24.12 88.15-23.95 89.46-23.56 90.77-23.17 92.01-22.52 93.26-21.88 94.28-20.95L94.28-20.95 94.28-23.56 104.78-23.56 104.78-19.41 99.41-19.41 99.41-3.66 104.78-3.66 104.78 0 94.28 0 94.28-3.17Q93.33-2.22 92.12-1.49 90.91-0.76 89.56-0.27 88.2 0.22 86.75 0.48 85.3 0.73 83.86 0.73L83.86 0.73Q80.34 0.73 77.68-0.27 75.02-1.27 73.24-2.97 71.45-4.66 70.55-6.92 69.65-9.18 69.65-11.69ZM101.17-5.13L101.17-17.7 106.54-17.7 106.54-21.7 107.51-21.7 107.51-16.77 102.14-16.77 102.14-5.13 101.17-5.13ZM74.95-11.89L74.95-11.89Q74.95-9.86 75.67-8.23 76.39-6.59 77.63-5.44 78.88-4.3 80.59-3.66 82.29-3.03 84.27-3.03L84.27-3.03Q85.42-3.03 86.6-3.26 87.79-3.49 88.9-3.97 90.01-4.44 91-5.16 91.99-5.88 92.71-6.87 93.43-7.86 93.85-9.13 94.28-10.4 94.28-11.96L94.28-11.96Q94.28-13.7 93.48-15.25 92.67-16.8 91.32-17.97 89.96-19.14 88.15-19.82 86.35-20.51 84.35-20.51L84.35-20.51Q82.34-20.51 80.62-19.9 78.9-19.29 77.64-18.16 76.39-17.04 75.67-15.44 74.95-13.84 74.95-11.89ZM76.63-11.77L76.63-11.77Q76.63-13.31 77.2-14.59 77.78-15.87 78.8-16.81 79.83-17.75 81.25-18.27 82.66-18.8 84.35-18.8L84.35-18.8Q85.62-18.8 86.64-18.52 87.67-18.24 88.42-17.83 89.18-17.43 89.67-17 90.16-16.58 90.35-16.26L90.35-16.26Q89.03-16.99 87.64-17.43 86.25-17.87 84.35-17.87L84.35-17.87Q82.81-17.87 81.57-17.37 80.34-16.87 79.46-16.02 78.58-15.16 78.11-14.04 77.63-12.92 77.63-11.67L77.63-11.67Q77.63-10.5 77.9-9.47 78.17-8.45 78.77-7.58 79.37-6.71 80.33-5.99 81.29-5.27 82.66-4.74L82.66-4.74Q81.12-5 79.99-5.65 78.85-6.3 78.11-7.23 77.36-8.15 77-9.31 76.63-10.47 76.63-11.77ZM95.75 1.71L106.54 1.71 106.54-2.29 107.51-2.29 107.51 2.64 95.75 2.64 95.75 1.71ZM72.8-1.05L72.8-1.05Q73.8-0.24 75.07 0.4 76.34 1.05 77.78 1.5 79.22 1.95 80.77 2.2 82.32 2.44 83.88 2.44L83.88 2.44Q86.59 2.44 88.95 1.77 91.3 1.1 93.13-0.1L93.13-0.1 93.13 1.03Q91.3 2.12 88.9 2.75 86.49 3.37 83.91 3.37L83.91 3.37Q82.12 3.37 80.41 3.09 78.71 2.81 77.24 2.25 75.78 1.68 74.63 0.85 73.48 0.02 72.8-1.05ZM120.45 7.86L126.65 7.86 130.39 0.9 116.76-19.9 111.54-19.9 111.54-23.56 128.22-23.56 128.22-19.9 123.04-19.9 133.12-4.17 141.57-19.9 135.64-19.9 135.64-23.56 151.9-23.56 151.9-19.9 146.94-19.9 129.8 11.52 120.45 11.52 120.45 7.86ZM121.92 13.23L131.07 13.23 148.23-18.19 153.65-18.19 153.65-22.19 154.63-22.19 154.63-17.26 148.8-17.26 131.68 14.16 121.92 14.16 121.92 13.23ZM133.32-7.5L126.48-18.19 129.97-18.19 129.97-22.19 130.95-22.19 130.95-17.26 128.22-17.26 133.85-8.47 133.32-7.5ZM136.83-17.26L136.83-18.19 139.37-18.19 138.88-17.26 136.83-17.26ZM113.01-17.26L113.01-18.19 116.55-18.19 117.16-17.26 113.01-17.26ZM175.38 0L175.38-8.79 180.38-8.79Q183.63-5.86 187.32-4.5 191-3.15 195.03-3.15L195.03-3.15Q196.79-3.15 198.25-3.49 199.72-3.83 200.79-4.43 201.87-5.03 202.47-5.83 203.06-6.64 203.06-7.57L203.06-7.57Q203.06-8.64 202.38-9.55 201.7-10.45 200.2-11.18 198.69-11.91 196.34-12.45 193.98-12.99 190.66-13.33L190.66-13.33Q186.8-13.72 184.09-14.61 181.38-15.5 179.66-16.77 177.94-18.04 177.15-19.6 176.35-21.17 176.35-22.9L176.35-22.9Q176.35-24.51 177.28-26.01 178.21-27.51 180.04-28.67 181.87-29.83 184.61-30.54 187.34-31.25 190.95-31.25L190.95-31.25Q193.05-31.25 194.8-30.92 196.55-30.59 198.02-30.03 199.5-29.47 200.74-28.7 201.99-27.93 203.09-27.05L203.09-27.05 203.09-30.4 208.58-30.4 208.58-21.61 203.09-21.61Q202.36-22.83 201.18-23.88 200.01-24.93 198.49-25.7 196.96-26.46 195.15-26.9 193.35-27.34 191.37-27.34L191.37-27.34Q189.29-27.34 187.72-26.97 186.14-26.59 185.08-25.99 184.02-25.39 183.48-24.66 182.95-23.93 182.95-23.22L182.95-23.22Q182.95-22.31 183.42-21.5 183.9-20.68 185.11-19.98 186.32-19.29 188.39-18.74 190.47-18.19 193.66-17.8L193.66-17.8Q198.16-17.24 201.18-16.38 204.21-15.53 206.04-14.32 207.87-13.11 208.65-11.51 209.44-9.91 209.44-7.91L209.44-7.91Q209.44-6.4 208.62-4.86 207.8-3.32 206.13-2.08 204.46-0.83 201.89-0.05 199.33 0.73 195.86 0.73L195.86 0.73Q193.69 0.73 191.7 0.45 189.71 0.17 187.87-0.38 186.02-0.93 184.29-1.73 182.56-2.54 180.87-3.61L180.87-3.61 180.87 0 175.38 0ZM204.55-18.97L204.55-19.9 210.34-19.9 210.34-29.15 211.36-29.15 211.36-18.97 204.55-18.97ZM184.97-23.36L184.97-23.36Q184.97-23.88 185.5-24.29 186.02-24.71 186.95-25 187.88-25.29 189.14-25.46 190.39-25.63 191.86-25.63L191.86-25.63Q194.08-25.63 195.97-24.94 197.86-24.24 199.11-23.14L199.11-23.14Q198.43-23.44 197.57-23.72 196.72-24 195.78-24.23 194.84-24.46 193.85-24.6 192.86-24.73 191.91-24.73L191.91-24.73Q189.25-24.73 187.52-24.3 185.8-23.88 184.97-23.36ZM177.06-17.04L177.06-17.04Q177.89-15.97 179-15.11 180.11-14.26 181.69-13.6 183.26-12.94 185.38-12.45 187.49-11.96 190.32-11.65L190.32-11.65Q193.08-11.33 195.04-10.99 197.01-10.64 198.3-10.24 199.6-9.84 200.29-9.33 200.99-8.81 201.23-8.13L201.23-8.13Q200.52-8.54 199.73-8.87 198.94-9.2 197.69-9.51 196.45-9.81 194.57-10.11 192.69-10.4 189.83-10.74L189.83-10.74Q186.83-11.11 184.52-11.74 182.21-12.38 180.61-13.2 179.02-14.01 178.12-15 177.23-15.99 177.06-17.04ZM176.84 1.71L182.63 1.71 182.63-0.71Q185.56 0.83 188.76 1.64 191.96 2.44 195.84 2.44L195.84 2.44Q198.79 2.44 201.55 1.81 204.31 1.17 206.46-0.1 208.61-1.37 209.9-3.3 211.19-5.22 211.19-7.81L211.19-7.81Q211.19-9.38 210.86-10.66 210.53-11.94 209.56-13.23L209.56-13.23Q210.14-12.82 210.62-12.22 211.1-11.62 211.44-10.9 211.78-10.18 211.97-9.39 212.17-8.59 212.17-7.81L212.17-7.81Q212.17-5.13 210.89-3.05 209.61-0.98 207.38 0.45 205.16 1.88 202.18 2.62 199.21 3.37 195.81 3.37L195.81 3.37Q192 3.37 189.01 2.71 186.02 2.05 183.65 0.88L183.65 0.88 183.65 2.64 176.84 2.64 176.84 1.71ZM219.15 0L219.15-3.66 224.52-3.66 224.52-19.41 219.15-19.41 219.15-23.56 229.77-23.56 229.77-19.9Q230.5-20.83 231.53-21.63 232.55-22.44 233.84-23.02 235.12-23.61 236.62-23.95 238.12-24.29 239.8-24.29L239.8-24.29Q243.25-24.29 245.7-22.95 248.15-21.61 249.5-18.8L249.5-18.8Q250.4-20 251.61-21.01 252.82-22.02 254.26-22.75 255.7-23.49 257.35-23.89 258.99-24.29 260.8-24.29L260.8-24.29Q263.32-24.29 265.34-23.56 267.37-22.83 268.8-21.33 270.22-19.82 270.99-17.54 271.76-15.26 271.76-12.16L271.76-12.16 271.76-3.66 277.13-3.66 277.13 0 262.36 0 262.36-3.66 266.51-3.66 266.51-9.96Q266.51-12.26 266.32-13.96 266.12-15.67 265.66-16.6L265.66-16.6Q264.73-18.53 263.16-19.34 261.58-20.14 259.46-20.14L259.46-20.14Q258.24-20.14 256.97-19.69 255.7-19.24 254.53-18.43 253.35-17.63 252.35-16.53 251.35-15.43 250.67-14.16L250.67-14.16Q250.72-13.67 250.74-13.17 250.77-12.67 250.77-12.16L250.77-12.16 250.77-3.66 254.92-3.66 254.92 0 241.37 0 241.37-3.66 245.52-3.66 245.52-10.08Q245.52-12.06 245.33-13.61 245.15-15.16 244.81-16.04L244.81-16.04Q243.95-18.26 242.32-19.2 240.68-20.14 238.46-20.14L238.46-20.14Q237.24-20.14 236-19.7 234.75-19.26 233.59-18.48 232.43-17.7 231.44-16.63 230.45-15.55 229.77-14.31L229.77-14.31 229.77-3.66 233.92-3.66 233.92 0 219.15 0ZM268.34-23.56L268.34-23.56Q270-23.14 271.18-22.16 272.35-21.17 273.08-19.65 273.81-18.14 274.15-16.16 274.5-14.18 274.5-11.82L274.5-11.82 274.5-5.13 273.52-5.13 273.52-11.99Q273.52-14.14 273.19-15.98 272.86-17.82 272.2-19.3 271.54-20.78 270.58-21.85 269.61-22.92 268.34-23.56ZM247.35-23.56L247.35-23.56Q248.52-23.41 249.41-22.9 250.3-22.39 250.79-21.78L250.79-21.78 250.08-21.12Q249.94-21.41 249.63-21.78 249.33-22.14 248.95-22.5 248.57-22.85 248.14-23.13 247.71-23.41 247.35-23.56ZM252.52-5.13L252.52-13.67Q253.13-14.75 253.94-15.63 254.75-16.5 255.67-17.13 256.6-17.75 257.63-18.09 258.65-18.43 259.73-18.43L259.73-18.43Q261.41-18.43 262.5-17.8 263.58-17.16 264.07-16.19L264.07-16.19Q263.32-16.75 262.27-17.13 261.22-17.5 259.68-17.5L259.68-17.5Q258.73-17.5 257.79-17.18 256.85-16.85 256.03-16.28 255.21-15.72 254.55-14.99 253.89-14.26 253.5-13.48L253.5-13.48 253.5-5.13 252.52-5.13ZM231.53-5.13L231.53-13.67Q232.14-14.75 232.94-15.63 233.75-16.5 234.68-17.13 235.61-17.75 236.63-18.09 237.66-18.43 238.73-18.43L238.73-18.43Q240.41-18.43 241.5-17.8 242.59-17.16 243.08-16.19L243.08-16.19Q242.32-16.75 241.27-17.13 240.22-17.5 238.68-17.5L238.68-17.5Q237.73-17.5 236.79-17.18 235.85-16.85 235.03-16.28 234.21-15.72 233.55-14.99 232.9-14.26 232.5-13.48L232.5-13.48 232.5-5.13 231.53-5.13ZM220.61-16.77L220.61-17.7 223.5-17.7 223.5-16.77 220.61-16.77ZM263.83 1.71L278.89 1.71 278.89-2.29 279.87-2.29 279.87 2.64 263.83 2.64 263.83 1.71ZM242.83 1.71L256.67 1.71 256.67-2.29 257.65-2.29 257.65 2.64 242.83 2.64 242.83 1.71ZM220.61 1.71L235.68 1.71 235.68-2.29 236.65-2.29 236.65 2.64 220.61 2.64 220.61 1.71ZM283.6-11.69L283.6-11.69Q283.6-13.96 284.55-16.21 285.5-18.46 287.37-20.25 289.24-22.05 292-23.17 294.76-24.29 298.35-24.29L298.35-24.29Q299.49-24.29 300.8-24.12 302.11-23.95 303.41-23.56 304.72-23.17 305.96-22.52 307.21-21.88 308.23-20.95L308.23-20.95 308.23-23.56 318.73-23.56 318.73-19.41 313.36-19.41 313.36-3.66 318.73-3.66 318.73 0 308.23 0 308.23-3.17Q307.28-2.22 306.07-1.49 304.87-0.76 303.51-0.27 302.16 0.22 300.7 0.48 299.25 0.73 297.81 0.73L297.81 0.73Q294.29 0.73 291.63-0.27 288.97-1.27 287.19-2.97 285.41-4.66 284.5-6.92 283.6-9.18 283.6-11.69ZM315.12-5.13L315.12-17.7 320.49-17.7 320.49-21.7 321.47-21.7 321.47-16.77 316.1-16.77 316.1-5.13 315.12-5.13ZM288.9-11.89L288.9-11.89Q288.9-9.86 289.62-8.23 290.34-6.59 291.58-5.44 292.83-4.3 294.54-3.66 296.25-3.03 298.22-3.03L298.22-3.03Q299.37-3.03 300.56-3.26 301.74-3.49 302.85-3.97 303.96-4.44 304.95-5.16 305.94-5.88 306.66-6.87 307.38-7.86 307.81-9.13 308.23-10.4 308.23-11.96L308.23-11.96Q308.23-13.7 307.43-15.25 306.62-16.8 305.27-17.97 303.91-19.14 302.11-19.82 300.3-20.51 298.3-20.51L298.3-20.51Q296.3-20.51 294.57-19.9 292.85-19.29 291.6-18.16 290.34-17.04 289.62-15.44 288.9-13.84 288.9-11.89ZM290.58-11.77L290.58-11.77Q290.58-13.31 291.16-14.59 291.73-15.87 292.76-16.81 293.78-17.75 295.2-18.27 296.61-18.8 298.3-18.8L298.3-18.8Q299.57-18.8 300.59-18.52 301.62-18.24 302.38-17.83 303.13-17.43 303.62-17 304.11-16.58 304.3-16.26L304.3-16.26Q302.99-16.99 301.59-17.43 300.2-17.87 298.3-17.87L298.3-17.87Q296.76-17.87 295.53-17.37 294.29-16.87 293.42-16.02 292.54-15.16 292.06-14.04 291.58-12.92 291.58-11.67L291.58-11.67Q291.58-10.5 291.85-9.47 292.12-8.45 292.72-7.58 293.32-6.71 294.28-5.99 295.25-5.27 296.61-4.74L296.61-4.74Q295.08-5 293.94-5.65 292.8-6.3 292.06-7.23 291.32-8.15 290.95-9.31 290.58-10.47 290.58-11.77ZM309.7 1.71L320.49 1.71 320.49-2.29 321.47-2.29 321.47 2.64 309.7 2.64 309.7 1.71ZM286.75-1.05L286.75-1.05Q287.75-0.24 289.02 0.4 290.29 1.05 291.73 1.5 293.17 1.95 294.72 2.2 296.27 2.44 297.83 2.44L297.83 2.44Q300.54 2.44 302.9 1.77 305.26 1.1 307.09-0.1L307.09-0.1 307.09 1.03Q305.26 2.12 302.85 2.75 300.45 3.37 297.86 3.37L297.86 3.37Q296.08 3.37 294.37 3.09 292.66 2.81 291.19 2.25 289.73 1.68 288.58 0.85 287.43 0.02 286.75-1.05ZM328.06 0L328.06-3.66 333.43-3.66 333.43-19.41 328.06-19.41 328.06-23.56 338.68-23.56 338.68-19.48Q339.43-20.46 340.5-21.34 341.56-22.22 342.9-22.88 344.24-23.54 345.83-23.91 347.42-24.29 349.22-24.29L349.22-24.29Q349.76-24.29 350.57-24.26 351.37-24.22 352.1-24.1L352.1-24.1 352.1-19.31Q351.25-19.51 350.42-19.58 349.59-19.65 348.81-19.65L348.81-19.65Q346.86-19.65 345.11-19.03 343.36-18.41 342-17.22 340.63-16.04 339.75-14.33 338.87-12.62 338.68-10.42L338.68-10.42 338.68-3.66 347.47-3.66 347.47 0 328.06 0ZM340.39-5.13L340.39-8.23Q340.39-10.52 340.97-12.33 341.56-14.14 342.64-15.38 343.73-16.63 345.29-17.29 346.86-17.94 348.81-17.94L348.81-17.94Q349.22-17.94 349.86-17.88 350.49-17.82 351.19-17.7 351.88-17.58 352.59-17.4 353.3-17.21 353.86-16.97L353.86-16.97 353.86-22.73 354.84-22.73 354.84-15.75Q354.15-16.04 353.36-16.27 352.57-16.5 351.75-16.67 350.93-16.85 350.18-16.93 349.42-17.02 348.81-17.02L348.81-17.02Q347.03-17.02 345.65-16.43 344.27-15.84 343.31-14.75 342.36-13.65 341.86-12.06 341.36-10.47 341.36-8.47L341.36-8.47 341.36-5.13 340.39-5.13ZM329.52-16.77L329.52-17.7 332.4-17.7 332.4-16.77 329.52-16.77ZM329.52 1.71L349.22 1.71 349.22-2.29 350.2-2.29 350.2 2.64 329.52 2.64 329.52 1.71ZM363.84-8.74L363.84-19.41 358.47-19.41 358.47-23.56 363.84-23.56 363.84-28.49 369.09-30.69 369.09-23.56 381.23-23.56 381.23-19.41 369.09-19.41 369.09-7.76Q369.09-5.93 370.24-5.04 371.39-4.15 373.37-4.15L373.37-4.15 380.25-4.15 380.25 0 373.37 0Q371.39 0 369.66-0.43 367.92-0.85 366.63-1.87 365.33-2.88 364.59-4.55 363.84-6.23 363.84-8.74L363.84-8.74ZM370.85-25.02L370.85-29.35 371.83-29.79 371.83-25.02 370.85-25.02ZM370.8-6.76L370.8-17.97 382.99-17.97 382.99-22.46 383.96-22.46 383.96-17.04 371.78-17.04 371.78-5.79Q370.95-6.01 370.8-6.76L370.8-6.76ZM359.94-16.77L359.94-17.7 362.87-17.7 362.87-16.77 359.94-16.77ZM363.7-2.1L363.7-2.1Q364.48-1 365.44-0.27 366.41 0.46 367.6 0.9 368.8 1.34 370.22 1.53 371.63 1.71 373.32 1.71L373.32 1.71 382.01 1.71 382.01-3.05 382.99-3.05 382.99 2.64 373.2 2.64Q371.32 2.64 369.78 2.39 368.24 2.15 367.06 1.6 365.87 1.05 365.03 0.13 364.19-0.78 363.7-2.1ZM389.18-11.33L389.18-11.33Q389.18-13.92 390.14-16.26 391.09-18.6 392.99-20.39 394.9-22.17 397.73-23.23 400.56-24.29 404.3-24.29L404.3-24.29Q407.81-24.29 410.57-23.35 413.33-22.41 415.26-20.63 417.19-18.85 418.2-16.27 419.21-13.7 419.21-10.4L419.21-10.4 394.53-10.4Q394.75-8.64 395.67-7.28 396.58-5.91 398-4.97 399.41-4.03 401.21-3.54 403-3.05 404.96-3.05L404.96-3.05Q406.54-3.05 408.19-3.31 409.84-3.56 411.3-4 412.77-4.44 413.92-4.99 415.06-5.54 415.67-6.13L415.67-6.13 416.6-6.13 418.9-3.64Q416.38-1.49 412.78-0.38 409.18 0.73 404.83 0.73L404.83 0.73Q401.05 0.73 398.13-0.2 395.21-1.12 393.22-2.76 391.23-4.39 390.21-6.59 389.18-8.79 389.18-11.33ZM396.87-8.69L420.87-8.69Q420.92-9.06 420.95-9.48 420.97-9.91 420.97-10.4L420.97-10.4Q420.97-12.48 420.54-14.37 420.12-16.26 419.3-17.88 418.48-19.51 417.28-20.85 416.09-22.19 414.57-23.14L414.57-23.14Q416.19-22.51 417.54-21.4 418.9-20.29 419.87-18.7 420.85-17.11 421.4-15.04 421.95-12.96 421.95-10.4L421.95-10.4Q421.95-10.21 421.94-9.91 421.92-9.62 421.9-9.25 421.87-8.89 421.84-8.51 421.8-8.13 421.75-7.76L421.75-7.76 398.68-7.76Q399.14-6.98 400.39-6.16 401.64-5.35 403.61-4.79L403.61-4.79Q402.39-4.79 401.33-5.08 400.27-5.37 399.4-5.88 398.53-6.4 397.89-7.12 397.24-7.84 396.87-8.69L396.87-8.69ZM394.68-13.45L413.57-13.45Q413.18-15.14 412.37-16.46 411.55-17.77 410.35-18.66 409.15-19.56 407.62-20.03 406.08-20.51 404.25-20.51L404.25-20.51Q402.27-20.51 400.65-19.98 399.02-19.46 397.8-18.52 396.58-17.58 395.79-16.28 394.99-14.99 394.68-13.45L394.68-13.45ZM398.02-14.5L396.9-14.5Q397.8-16.5 399.74-17.65 401.68-18.8 404.25-18.8L404.25-18.8Q405.3-18.8 406.29-18.63 407.27-18.46 408.12-18.1 408.96-17.75 409.59-17.24 410.23-16.72 410.6-16.06L410.6-16.06Q409.2-16.99 407.62-17.43 406.03-17.87 404.2-17.87L404.2-17.87Q402.07-17.87 400.46-16.99 398.85-16.11 398.02-14.5L398.02-14.5ZM392.14-1.07L392.14-1.07Q394.51 0.61 397.64 1.54 400.78 2.47 404.83 2.47L404.83 2.47Q408.79 2.47 412.24 1.56 415.7 0.66 418.48-1.2L418.48-1.2 419.14-0.49Q415.99 1.64 412.51 2.51 409.03 3.39 405.22 3.39L405.22 3.39Q400.27 3.39 397.01 2.2 393.75 1 392.14-1.07ZM428.05 0L428.05-3.66 433.42-3.66 433.42-19.41 428.05-19.41 428.05-23.56 438.67-23.56 438.67-19.48Q439.43-20.46 440.49-21.34 441.55-22.22 442.89-22.88 444.24-23.54 445.82-23.91 447.41-24.29 449.22-24.29L449.22-24.29Q449.75-24.29 450.56-24.26 451.36-24.22 452.1-24.1L452.1-24.1 452.1-19.31Q451.24-19.51 450.41-19.58 449.58-19.65 448.8-19.65L448.8-19.65Q446.85-19.65 445.1-19.03 443.36-18.41 441.99-17.22 440.62-16.04 439.74-14.33 438.86-12.62 438.67-10.42L438.67-10.42 438.67-3.66 447.46-3.66 447.46 0 428.05 0ZM440.38-5.13L440.38-8.23Q440.38-10.52 440.96-12.33 441.55-14.14 442.64-15.38 443.72-16.63 445.29-17.29 446.85-17.94 448.8-17.94L448.8-17.94Q449.22-17.94 449.85-17.88 450.49-17.82 451.18-17.7 451.88-17.58 452.58-17.4 453.29-17.21 453.85-16.97L453.85-16.97 453.85-22.73 454.83-22.73 454.83-15.75Q454.15-16.04 453.35-16.27 452.56-16.5 451.74-16.67 450.92-16.85 450.17-16.93 449.41-17.02 448.8-17.02L448.8-17.02Q447.02-17.02 445.64-16.43 444.26-15.84 443.31-14.75 442.36-13.65 441.85-12.06 441.35-10.47 441.35-8.47L441.35-8.47 441.35-5.13 440.38-5.13ZM429.51-16.77L429.51-17.7 432.39-17.7 432.39-16.77 429.51-16.77ZM429.51 1.71L449.22 1.71 449.22-2.29 450.19-2.29 450.19 2.64 429.51 2.64 429.51 1.71ZM460.42 0L460.42-6.35 468.35-6.35 468.35-0.9Q468.35 3.71 466.25 5.91 464.15 8.11 460.32 8.11L460.32 8.11 460.32 5.15Q461.44 5.15 462.3 4.93 463.15 4.71 463.75 4.13 464.35 3.54 464.67 2.54 464.98 1.54 465.03 0L465.03 0 460.42 0ZM460.32 10.74L460.32 9.81Q462.47 9.81 464.26 9.19 466.06 8.57 467.37 7.26 468.67 5.96 469.39 3.93 470.11 1.9 470.11-0.9L470.11-0.9 470.11-4.98 471.09-4.98 471.09-0.9Q471.09 1.95 470.32 4.14 469.55 6.32 468.15 7.79 466.74 9.25 464.75 10 462.76 10.74 460.32 10.74L460.32 10.74ZM461.88 1.71L463.81 1.71Q463.76 1.9 463.69 2.19 463.62 2.47 463.54 2.64L463.54 2.64 461.88 2.64 461.88 1.71ZM507.92 0L496.84-26.49 491.1-26.49 491.1-30.4 509.66-30.4 509.66-26.49 502.85-26.49 511.37-5.32 521.4-26.49 515.47-26.49 515.47-30.4 533.09-30.4 533.09-26.49 526.97-26.49 536.27-5.44 544.69-26.49 538.47-26.49 538.47-30.4 555.02-30.4 555.02-26.49 549.77-26.49 538.93 0 533.24 0 523.77-20.75 513.61 0 507.92 0ZM535.07 1.71L540.03 1.71 550.99-24.78 556.78-24.78 556.78-29.15 557.75-29.15 557.75-23.85 551.7-23.85 540.79 2.64 535.59 2.64 535.07 1.71ZM529.8-24.78L534.85-24.78 535.07-29.15 535.83-29.15 535.83-23.85 531.29-23.85 536.93-10.86 536.34-9.62 529.8-24.78ZM511.68-9.13L505.38-24.78 511.42-24.78 511.42-29.15 512.39-29.15 512.39-23.85 506.85-23.85 512.27-10.38 511.68-9.13ZM540.05-23.85L540.05-24.78 542.79-24.78 542.42-23.85 540.05-23.85ZM516.81-23.85L516.81-24.78 519.11-24.78 518.69-23.85 516.81-23.85ZM492.69-23.85L492.69-24.78 496.03-24.78 496.42-23.85 492.69-23.85ZM509.76 1.71L514.76 1.71 523.96-16.97 524.53-15.8 515.47 2.64 510.27 2.64 509.76 1.71ZM565.78-29.64L565.78-34.52 571.76-34.52 571.76-29.64 565.78-29.64ZM567.25-27L567.25-27.93 573.52-27.93 573.52-33.15 574.5-33.15 574.5-27 567.25-27ZM560.66 0L560.66-3.66 567.25-3.66 566.52-19.41 560.66-19.41 560.66-23.56 571.76-23.56 571.76-3.66 577.38-3.66 577.38 0 560.66 0ZM573.47-5.13L573.47-22.31 574.45-22.31 574.45-5.13 573.47-5.13ZM562.12-16.77L562.12-17.7 565.49-17.7 565.49-16.77 562.12-16.77ZM562.12 1.71L579.14 1.71 579.14-2.29 580.11-2.29 580.11 2.64 562.12 2.64 562.12 1.71ZM584.55 0L584.55-3.66 589.93-3.66 589.93-19.41 584.55-19.41 584.55-23.56 595.17-23.56 595.17-19.87Q595.93-20.8 596.99-21.61 598.06-22.41 599.37-23.01 600.69-23.61 602.23-23.95 603.77-24.29 605.45-24.29L605.45-24.29Q607.99-24.29 610.07-23.57 612.14-22.85 613.61-21.35 615.07-19.85 615.87-17.57 616.66-15.28 616.66-12.16L616.66-12.16 616.66-3.66 622.03-3.66 622.03 0 607.26 0 607.26-3.66 611.41-3.66 611.41-10.08Q611.41-12.06 611.23-13.61 611.04-15.16 610.7-16.04L610.7-16.04Q610.26-17.16 609.59-17.94 608.92-18.73 608.08-19.21 607.24-19.7 606.23-19.92 605.23-20.14 604.11-20.14L604.11-20.14Q602.91-20.14 601.63-19.7 600.35-19.26 599.14-18.47 597.93-17.68 596.9-16.6 595.86-15.53 595.17-14.28L595.17-14.28 595.17-3.66 599.33-3.66 599.33 0 584.55 0ZM618.42-5.13L618.42-11.99Q618.42-14.14 618.09-15.98 617.76-17.82 617.1-19.3 616.44-20.78 615.48-21.85 614.51-22.92 613.24-23.56L613.24-23.56Q614.9-23.14 616.07-22.16 617.25-21.17 617.98-19.65 618.71-18.14 619.05-16.16 619.39-14.18 619.39-11.82L619.39-11.82 619.39-5.13 618.42-5.13ZM596.93-5.13L596.93-13.67Q597.54-14.75 598.39-15.63 599.23-16.5 600.22-17.13 601.21-17.75 602.29-18.09 603.38-18.43 604.45-18.43L604.45-18.43Q606.14-18.43 607.19-17.8 608.24-17.16 608.72-16.19L608.72-16.19Q607.97-16.75 606.95-17.14 605.94-17.53 604.4-17.53L604.4-17.53Q603.45-17.53 602.47-17.18 601.5-16.82 600.62-16.24 599.74-15.65 599.03-14.89 598.32-14.14 597.91-13.35L597.91-13.35 597.91-5.13 596.93-5.13ZM586.02-16.77L586.02-17.7 588.9-17.7 588.9-16.77 586.02-16.77ZM608.72 1.71L623.79 1.71 623.79-2.29 624.76-2.29 624.76 2.64 608.72 2.64 608.72 1.71ZM586.02 1.71L601.08 1.71 601.08-2.29 602.06-2.29 602.06 2.64 586.02 2.64 586.02 1.71ZM645.44 0L645.44-3.91 651.81-3.91 651.81-26.49 645.07-26.49 645.07-30.4 662.6-30.4Q665.19-30.4 667.23-30.35 669.27-30.3 670.82-30.22 672.37-30.15 673.51-30.03 674.66-29.91 675.49-29.76L675.49-29.76Q677.49-29.39 678.9-28.71 680.3-28.03 681.18-27.08 682.06-26.12 682.46-24.94 682.87-23.75 682.87-22.39L682.87-22.39Q682.87-21.41 682.45-20.4 682.04-19.38 681.17-18.47 680.3-17.55 679-16.8 677.69-16.04 675.93-15.58L675.93-15.58Q677.71-15.36 679.12-14.71 680.52-14.06 681.49-13.12 682.45-12.18 682.95-11.01 683.45-9.84 683.45-8.57L683.45-8.57Q683.45-7.08 683.04-5.82 682.62-4.57 681.68-3.56 680.74-2.56 679.23-1.84 677.71-1.12 675.52-0.71L675.52-0.71Q673.15-0.27 670.08-0.13 667.02 0 663.02 0L663.02 0 645.44 0ZM647 1.71L663.02 1.71Q666.9 1.71 670.16 1.62 673.42 1.54 675.86 1.05L675.86 1.05Q678.59 0.51 680.4-0.5 682.21-1.51 683.27-2.81 684.33-4.1 684.76-5.62 685.18-7.13 685.18-8.67L685.18-8.67Q685.18-9.74 684.87-10.78 684.55-11.82 683.89-12.72 683.23-13.62 682.21-14.37 681.18-15.11 679.76-15.6L679.76-15.6Q682.28-16.85 683.45-18.54 684.62-20.24 684.62-22.39L684.62-22.39Q684.62-24.51 683.48-26.43 682.33-28.34 679.72-29.66L679.72-29.66Q681.18-29.3 682.28-28.6 683.38-27.91 684.12-26.98 684.87-26.05 685.23-24.93 685.6-23.8 685.6-22.58L685.6-22.58Q685.6-20.36 684.7-18.71 683.79-17.07 681.79-15.65L681.79-15.65Q684.13-14.4 685.15-12.61 686.16-10.82 686.16-8.67L686.16-8.67Q686.16-6.76 685.62-5.07 685.09-3.37 683.88-1.99 682.67-0.61 680.75 0.4 678.84 1.42 676.05 1.95L676.05 1.95Q673.59 2.44 670.4 2.54 667.22 2.64 663.02 2.64L663.02 2.64 647 2.64 647 1.71ZM657.38-16.97L666.43-16.97Q669.44-16.97 671.4-17.26 673.37-17.55 674.54-18.18 675.71-18.8 676.19-19.74 676.66-20.68 676.66-22L676.66-22Q676.66-23.32 675.83-24.37 675-25.42 673.17-25.98L673.17-25.98Q671.93-26.34 670.29-26.42 668.66-26.49 666.43-26.49L666.43-26.49 657.38-26.49 657.38-16.97ZM659.13-18.43L659.13-24.78 666.43-24.78Q668.29-24.78 669.63-24.69 670.98-24.61 671.93-24.39 672.88-24.17 673.54-23.82 674.2-23.46 674.71-22.92L674.71-22.92Q674.22-23.14 673.55-23.32 672.88-23.49 671.9-23.61 670.93-23.73 669.6-23.79 668.27-23.85 666.43-23.85L666.43-23.85 660.11-23.85 660.11-18.43 659.13-18.43ZM646.54-23.8L646.54-24.78 650.79-24.78 650.79-23.8 646.54-23.8ZM657.38-3.91L666.9-3.91Q669.41-3.91 671.22-4.04 673.03-4.17 674.34-4.66L674.34-4.66Q675.17-4.98 675.72-5.42 676.27-5.86 676.59-6.38 676.91-6.91 677.03-7.52 677.15-8.13 677.15-8.79L677.15-8.79Q677.15-10.4 676.16-11.58 675.17-12.77 673.1-13.38L673.1-13.38Q671.83-13.75 670.19-13.83 668.56-13.92 666.48-13.92L666.48-13.92 657.38-13.92 657.38-3.91ZM659.13-5.37L659.13-12.21 666.43-12.21Q668.29-12.21 669.71-12.08 671.12-11.96 672.16-11.71 673.2-11.45 673.93-11.07 674.66-10.69 675.17-10.16L675.17-10.16Q674.54-10.45 673.82-10.66 673.1-10.86 672.1-11.01 671.1-11.16 669.73-11.22 668.36-11.28 666.43-11.28L666.43-11.28 660.11-11.28 660.11-5.37 659.13-5.37ZM697.41-29.64L697.41-34.52 703.39-34.52 703.39-29.64 697.41-29.64ZM698.88-27L698.88-27.93 705.15-27.93 705.15-33.15 706.13-33.15 706.13-27 698.88-27ZM692.29 0L692.29-3.66 698.88-3.66 698.15-19.41 692.29-19.41 692.29-23.56 703.39-23.56 703.39-3.66 709.01-3.66 709.01 0 692.29 0ZM705.1-5.13L705.1-22.31 706.08-22.31 706.08-5.13 705.1-5.13ZM693.75-16.77L693.75-17.7 697.12-17.7 697.12-16.77 693.75-16.77ZM693.75 1.71L710.77 1.71 710.77-2.29 711.74-2.29 711.74 2.64 693.75 2.64 693.75 1.71ZM715.87 7.47L718.6 4.27Q719.8 5.52 721.28 6.36 722.75 7.2 724.28 7.71 725.8 8.23 727.27 8.45 728.73 8.67 729.91 8.67L729.91 8.67Q732.2 8.67 734.03 8.24 735.86 7.81 737.14 6.69 738.43 5.57 739.11 3.61 739.79 1.66 739.79-1.42L739.79-1.42 739.79-3.61Q738.87-2.73 737.69-2.03 736.52-1.32 735.18-0.81 733.84-0.29 732.36-0.02 730.88 0.24 729.37 0.24L729.37 0.24Q725.95 0.24 723.3-0.61 720.65-1.46 718.85-3.04 717.04-4.61 716.1-6.86 715.16-9.11 715.16-11.89L715.16-11.89Q715.16-13.4 715.6-14.9 716.04-16.41 716.91-17.79 717.77-19.17 719.05-20.35 720.34-21.53 722-22.41 723.66-23.29 725.71-23.79 727.76-24.29 730.15-24.29L730.15-24.29Q731.27-24.29 732.55-24.08 733.84-23.88 735.11-23.44 736.38-23 737.58-22.3 738.79-21.61 739.79-20.63L739.79-20.63 739.79-23.56 750.29-23.56 750.29-19.41 744.92-19.41 744.92-1.42Q744.92 2.51 743.82 5.18 742.72 7.84 740.75 9.45 738.77 11.06 736.05 11.76 733.32 12.45 730.08 12.45L730.08 12.45Q728.17 12.45 726.17 12.16 724.17 11.87 722.28 11.27 720.38 10.67 718.72 9.73 717.06 8.79 715.87 7.47L715.87 7.47ZM717.31 10.86L717.31 10.86Q718.53 11.74 720.07 12.38 721.61 13.01 723.29 13.4 724.97 13.79 726.71 13.98 728.44 14.16 730.08 14.16L730.08 14.16Q732.3 14.16 734.4 13.83 736.5 13.5 738.34 12.77 740.18 12.04 741.72 10.84 743.26 9.64 744.36 7.9 745.46 6.15 746.07 3.82 746.68 1.49 746.68-1.54L746.68-1.54 746.68-17.7 752.05-17.7 752.05-22.19 753.03-22.19 753.03-16.77 747.66-16.77 747.66-1.54Q747.66 1.64 747.02 4.1 746.39 6.57 745.24 8.42 744.09 10.28 742.48 11.55 740.87 12.82 738.91 13.6 736.96 14.38 734.72 14.73 732.47 15.09 730.08 15.09L730.08 15.09Q728.22 15.09 726.29 14.79 724.36 14.5 722.64 13.95 720.92 13.4 719.52 12.62 718.11 11.84 717.31 10.86ZM720.46-12.08L720.46-12.08Q720.46-10.21 721.06-8.63 721.65-7.06 722.84-5.92 724.02-4.79 725.77-4.15 727.51-3.52 729.78-3.52L729.78-3.52Q731.59-3.52 733.39-3.97 735.18-4.42 736.61-5.44 738.04-6.47 738.91-8.13 739.79-9.79 739.79-12.21L739.79-12.21Q739.79-13.94 739.04-15.45 738.28-16.97 736.96-18.09 735.64-19.21 733.87-19.86 732.1-20.51 730.1-20.51L730.1-20.51Q728.15-20.51 726.4-19.9 724.66-19.29 723.34-18.16 722.02-17.04 721.24-15.49 720.46-13.94 720.46-12.08ZM722.17-12.04L722.17-12.04Q722.17-13.43 722.75-14.66 723.34-15.89 724.39-16.81 725.44-17.72 726.9-18.26 728.37-18.8 730.1-18.8L730.1-18.8Q732.42-18.8 733.95-18.05 735.47-17.31 736.35-16.16L736.35-16.16Q735.77-16.53 735.14-16.85 734.52-17.16 733.78-17.4 733.03-17.63 732.13-17.76 731.22-17.9 730.1-17.9L730.1-17.9Q728.56-17.9 727.29-17.42 726.02-16.94 725.11-16.14 724.19-15.33 723.69-14.29 723.19-13.26 723.19-12.13L723.19-12.13Q723.19-9.74 724.33-8.04 725.46-6.35 728.1-5.3L728.1-5.3Q726.83-5.42 725.74-5.96 724.66-6.49 723.86-7.37 723.07-8.25 722.62-9.44 722.17-10.62 722.17-12.04ZM718.11-1.54L718.11-1.54Q719.12-0.73 720.42-0.09 721.73 0.56 723.2 1.01 724.68 1.46 726.26 1.71 727.83 1.95 729.39 1.95L729.39 1.95Q732.1 1.95 734.46 1.31 736.82 0.66 738.65-0.54L738.65-0.54 738.5 0.68Q736.67 1.78 734.34 2.33 732.01 2.88 729.42 2.88L729.42 2.88Q725.46 2.88 722.56 1.77 719.65 0.66 718.11-1.54ZM758.13 7.47L760.86 4.27Q762.06 5.52 763.53 6.36 765.01 7.2 766.54 7.71 768.06 8.23 769.53 8.45 770.99 8.67 772.16 8.67L772.16 8.67Q774.46 8.67 776.29 8.24 778.12 7.81 779.4 6.69 780.68 5.57 781.37 3.61 782.05 1.66 782.05-1.42L782.05-1.42 782.05-3.61Q781.12-2.73 779.95-2.03 778.78-1.32 777.44-0.81 776.09-0.29 774.62-0.02 773.14 0.24 771.63 0.24L771.63 0.24Q768.21 0.24 765.56-0.61 762.91-1.46 761.1-3.04 759.3-4.61 758.36-6.86 757.42-9.11 757.42-11.89L757.42-11.89Q757.42-13.4 757.86-14.9 758.3-16.41 759.16-17.79 760.03-19.17 761.31-20.35 762.59-21.53 764.25-22.41 765.91-23.29 767.97-23.79 770.02-24.29 772.41-24.29L772.41-24.29Q773.53-24.29 774.81-24.08 776.09-23.88 777.36-23.44 778.63-23 779.84-22.3 781.05-21.61 782.05-20.63L782.05-20.63 782.05-23.56 792.55-23.56 792.55-19.41 787.18-19.41 787.18-1.42Q787.18 2.51 786.08 5.18 784.98 7.84 783 9.45 781.03 11.06 778.3 11.76 775.58 12.45 772.34 12.45L772.34 12.45Q770.43 12.45 768.43 12.16 766.43 11.87 764.53 11.27 762.64 10.67 760.98 9.73 759.32 8.79 758.13 7.47L758.13 7.47ZM759.57 10.86L759.57 10.86Q760.79 11.74 762.33 12.38 763.86 13.01 765.55 13.4 767.23 13.79 768.97 13.98 770.7 14.16 772.34 14.16L772.34 14.16Q774.56 14.16 776.66 13.83 778.76 13.5 780.6 12.77 782.44 12.04 783.98 10.84 785.52 9.64 786.62 7.9 787.72 6.15 788.33 3.82 788.94 1.49 788.94-1.54L788.94-1.54 788.94-17.7 794.31-17.7 794.31-22.19 795.28-22.19 795.28-16.77 789.91-16.77 789.91-1.54Q789.91 1.64 789.28 4.1 788.64 6.57 787.5 8.42 786.35 10.28 784.74 11.55 783.13 12.82 781.17 13.6 779.22 14.38 776.97 14.73 774.73 15.09 772.34 15.09L772.34 15.09Q770.48 15.09 768.55 14.79 766.62 14.5 764.9 13.95 763.18 13.4 761.78 12.62 760.37 11.84 759.57 10.86ZM762.72-12.08L762.72-12.08Q762.72-10.21 763.31-8.63 763.91-7.06 765.1-5.92 766.28-4.79 768.03-4.15 769.77-3.52 772.04-3.52L772.04-3.52Q773.85-3.52 775.64-3.97 777.44-4.42 778.87-5.44 780.29-6.47 781.17-8.13 782.05-9.79 782.05-12.21L782.05-12.21Q782.05-13.94 781.3-15.45 780.54-16.97 779.22-18.09 777.9-19.21 776.13-19.86 774.36-20.51 772.36-20.51L772.36-20.51Q770.41-20.51 768.66-19.9 766.92-19.29 765.6-18.16 764.28-17.04 763.5-15.49 762.72-13.94 762.72-12.08ZM764.43-12.04L764.43-12.04Q764.43-13.43 765.01-14.66 765.6-15.89 766.65-16.81 767.7-17.72 769.16-18.26 770.63-18.8 772.36-18.8L772.36-18.8Q774.68-18.8 776.2-18.05 777.73-17.31 778.61-16.16L778.61-16.16Q778.02-16.53 777.4-16.85 776.78-17.16 776.03-17.4 775.29-17.63 774.39-17.76 773.48-17.9 772.36-17.9L772.36-17.9Q770.82-17.9 769.55-17.42 768.28-16.94 767.37-16.14 766.45-15.33 765.95-14.29 765.45-13.26 765.45-12.13L765.45-12.13Q765.45-9.74 766.59-8.04 767.72-6.35 770.36-5.3L770.36-5.3Q769.09-5.42 768-5.96 766.92-6.49 766.12-7.37 765.33-8.25 764.88-9.44 764.43-10.62 764.43-12.04ZM760.37-1.54L760.37-1.54Q761.37-0.73 762.68-0.09 763.99 0.56 765.46 1.01 766.94 1.46 768.51 1.71 770.09 1.95 771.65 1.95L771.65 1.95Q774.36 1.95 776.72 1.31 779.07 0.66 780.9-0.54L780.9-0.54 780.76 0.68Q778.93 1.78 776.6 2.33 774.26 2.88 771.68 2.88L771.68 2.88Q767.72 2.88 764.82 1.77 761.91 0.66 760.37-1.54ZM799.68-11.33L799.68-11.33Q799.68-13.92 800.63-16.26 801.58-18.6 803.49-20.39 805.39-22.17 808.22-23.23 811.05-24.29 814.79-24.29L814.79-24.29Q818.3-24.29 821.06-23.35 823.82-22.41 825.75-20.63 827.68-18.85 828.69-16.27 829.71-13.7 829.71-10.4L829.71-10.4 805.02-10.4Q805.24-8.64 806.16-7.28 807.07-5.91 808.49-4.97 809.91-4.03 811.7-3.54 813.49-3.05 815.45-3.05L815.45-3.05Q817.03-3.05 818.68-3.31 820.33-3.56 821.8-4 823.26-4.44 824.41-4.99 825.56-5.54 826.17-6.13L826.17-6.13 827.09-6.13 829.39-3.64Q826.87-1.49 823.27-0.38 819.67 0.73 815.33 0.73L815.33 0.73Q811.54 0.73 808.62-0.2 805.71-1.12 803.72-2.76 801.73-4.39 800.7-6.59 799.68-8.79 799.68-11.33ZM807.37-8.69L831.37-8.69Q831.41-9.06 831.44-9.48 831.46-9.91 831.46-10.4L831.46-10.4Q831.46-12.48 831.04-14.37 830.61-16.26 829.79-17.88 828.97-19.51 827.78-20.85 826.58-22.19 825.07-23.14L825.07-23.14Q826.68-22.51 828.03-21.4 829.39-20.29 830.36-18.7 831.34-17.11 831.89-15.04 832.44-12.96 832.44-10.4L832.44-10.4Q832.44-10.21 832.43-9.91 832.42-9.62 832.39-9.25 832.37-8.89 832.33-8.51 832.29-8.13 832.24-7.76L832.24-7.76 809.17-7.76Q809.64-6.98 810.88-6.16 812.13-5.35 814.11-4.79L814.11-4.79Q812.88-4.79 811.82-5.08 810.76-5.37 809.89-5.88 809.03-6.4 808.38-7.12 807.73-7.84 807.37-8.69L807.37-8.69ZM805.17-13.45L824.07-13.45Q823.68-15.14 822.86-16.46 822.04-17.77 820.84-18.66 819.65-19.56 818.11-20.03 816.57-20.51 814.74-20.51L814.74-20.51Q812.76-20.51 811.14-19.98 809.52-19.46 808.29-18.52 807.07-17.58 806.28-16.28 805.49-14.99 805.17-13.45L805.17-13.45ZM808.51-14.5L807.39-14.5Q808.29-16.5 810.24-17.65 812.18-18.8 814.74-18.8L814.74-18.8Q815.79-18.8 816.78-18.63 817.77-18.46 818.61-18.1 819.45-17.75 820.09-17.24 820.72-16.72 821.09-16.06L821.09-16.06Q819.7-16.99 818.11-17.43 816.52-17.87 814.69-17.87L814.69-17.87Q812.57-17.87 810.96-16.99 809.34-16.11 808.51-14.5L808.51-14.5ZM802.63-1.07L802.63-1.07Q805 0.61 808.14 1.54 811.27 2.47 815.33 2.47L815.33 2.47Q819.28 2.47 822.74 1.56 826.19 0.66 828.97-1.2L828.97-1.2 829.63-0.49Q826.48 1.64 823 2.51 819.53 3.39 815.72 3.39L815.72 3.39Q810.76 3.39 807.5 2.2 804.24 1 802.63-1.07ZM838.54 0L838.54-3.66 843.91-3.66 843.91-19.41 838.54-19.41 838.54-23.56 849.16-23.56 849.16-19.48Q849.92-20.46 850.98-21.34 852.04-22.22 853.38-22.88 854.73-23.54 856.31-23.91 857.9-24.29 859.71-24.29L859.71-24.29Q860.25-24.29 861.05-24.26 861.86-24.22 862.59-24.1L862.59-24.1 862.59-19.31Q861.73-19.51 860.9-19.58 860.07-19.65 859.29-19.65L859.29-19.65Q857.34-19.65 855.59-19.03 853.85-18.41 852.48-17.22 851.11-16.04 850.24-14.33 849.36-12.62 849.16-10.42L849.16-10.42 849.16-3.66 857.95-3.66 857.95 0 838.54 0ZM850.87-5.13L850.87-8.23Q850.87-10.52 851.46-12.33 852.04-14.14 853.13-15.38 854.21-16.63 855.78-17.29 857.34-17.94 859.29-17.94L859.29-17.94Q859.71-17.94 860.34-17.88 860.98-17.82 861.67-17.7 862.37-17.58 863.08-17.4 863.79-17.21 864.35-16.97L864.35-16.97 864.35-22.73 865.32-22.73 865.32-15.75Q864.64-16.04 863.85-16.27 863.05-16.5 862.23-16.67 861.42-16.85 860.66-16.93 859.9-17.02 859.29-17.02L859.29-17.02Q857.51-17.02 856.13-16.43 854.75-15.84 853.8-14.75 852.85-13.65 852.35-12.06 851.85-10.47 851.85-8.47L851.85-8.47 851.85-5.13 850.87-5.13ZM840.01-16.77L840.01-17.7 842.89-17.7 842.89-16.77 840.01-16.77ZM840.01 1.71L859.71 1.71 859.71-2.29 860.68-2.29 860.68 2.64 840.01 2.64 840.01 1.71ZM870.81 0L870.81-6.35 878.75-6.35 878.75 0 870.81 0ZM872.28 1.71L880.51 1.71 880.51-4.98 881.48-4.98 881.48 2.64 872.28 2.64 872.28 1.71Z" opacity="1" transform="matrix(1,0,0,1,0,0)" fill="#f9e17e" class="slogan-text-1" data-fill-palette-color="quaternary" id="text-1"></path></svg></g></svg></g></svg></g></svg></g><g transform="matrix(1,0,0,1,85.57182236614335,0)"><svg viewBox="0 0 42.014796494870424 55.854670530740236" height="55.854670530740236" width="42.014796494870424"><g><svg xmlns="http://www.w3.org/2000/svg" viewBox="11 4.165 42 55.835" x="0" y="0" height="55.854670530740236" width="42.014796494870424" class="icon-icon-0" data-fill-palette-color="quaternary" id="icon-0"><g fill="#f9e17e" data-fill-palette-color="quaternary"><path d="M29.187 15.211L29 15.118l-0.188 0.093A8.662 8.662 0 0 0 24 23a2 2 0 0 0 0.595 1.423 1.968 1.968 0 0 0 2.845 0l0.369-0.385 0.334-0.557a1.04 1.04 0 0 1 1.714 0l0.3 0.5 0.428 0.428a2.047 2.047 0 0 0 2.828 0A1.986 1.986 0 0 0 34 23 8.661 8.661 0 0 0 29.187 15.211Z" fill="#f9e17e" data-fill-palette-color="quaternary"></path><polygon points="27.767 28 30.233 28 29 25.943 27.767 28" fill="#f9e17e" data-fill-palette-color="quaternary"></polygon><path d="M39 8H19V36H39ZM34.828 25.828a3.986 3.986 0 0 1-2.888 1.128l0.917 1.529A1 1 0 0 1 32 30H26a1 1 0 0 1-0.857-1.515l0.871-1.452a3.931 3.931 0 0 1-2.8-1.162A4.018 4.018 0 0 1 22 23a10.65 10.65 0 0 1 5.919-9.578l0.635-0.317a1 1 0 0 1 0.892 0l0.634 0.317A10.649 10.649 0 0 1 36 23 3.973 3.973 0 0 1 34.828 25.828Z" fill="#f9e17e" data-fill-palette-color="quaternary"></path><polygon points="41 7.107 41 26.902 44.82 7.802 41 7.107" fill="#f9e17e" data-fill-palette-color="quaternary"></polygon><polygon points="24.819 4.165 24.513 6 34.911 6 24.819 4.165" fill="#f9e17e" data-fill-palette-color="quaternary"></polygon><rect x="47" y="50" width="4" height="2" fill="#f9e17e" data-fill-palette-color="quaternary"></rect><rect x="35" y="50" width="4" height="2" fill="#f9e17e" data-fill-palette-color="quaternary"></rect><rect x="41" y="50" width="4" height="2" fill="#f9e17e" data-fill-palette-color="quaternary"></rect><rect x="37" y="54" width="4" height="2" fill="#f9e17e" data-fill-palette-color="quaternary"></rect><rect x="43" y="54" width="4" height="2" fill="#f9e17e" data-fill-palette-color="quaternary"></rect><rect x="41" y="58" width="4" height="2" fill="#f9e17e" data-fill-palette-color="quaternary"></rect><rect x="47" y="58" width="4" height="2" fill="#f9e17e" data-fill-palette-color="quaternary"></rect><rect x="49" y="54" width="4" height="2" fill="#f9e17e" data-fill-palette-color="quaternary"></rect><rect x="35" y="58" width="4" height="2" fill="#f9e17e" data-fill-palette-color="quaternary"></rect><rect x="25" y="42" width="4" height="2" fill="#f9e17e" data-fill-palette-color="quaternary"></rect><rect x="11" y="54" width="4" height="2" fill="#f9e17e" data-fill-palette-color="quaternary"></rect><rect x="25" y="50" width="4" height="2" fill="#f9e17e" data-fill-palette-color="quaternary"></rect><rect x="17" y="46" width="4" height="2" fill="#f9e17e" data-fill-palette-color="quaternary"></rect><rect x="25" y="58" width="4" height="2" fill="#f9e17e" data-fill-palette-color="quaternary"></rect><rect x="11" y="46" width="4" height="2" fill="#f9e17e" data-fill-palette-color="quaternary"></rect><rect x="13" y="42" width="4" height="2" fill="#f9e17e" data-fill-palette-color="quaternary"></rect><rect x="13" y="50" width="4" height="2" fill="#f9e17e" data-fill-palette-color="quaternary"></rect><rect x="19" y="42" width="4" height="2" fill="#f9e17e" data-fill-palette-color="quaternary"></rect><rect x="23" y="46" width="4" height="2" fill="#f9e17e" data-fill-palette-color="quaternary"></rect><rect x="23" y="54" width="4" height="2" fill="#f9e17e" data-fill-palette-color="quaternary"></rect><rect x="19" y="50" width="4" height="2" fill="#f9e17e" data-fill-palette-color="quaternary"></rect><rect x="13" y="58" width="4" height="2" fill="#f9e17e" data-fill-palette-color="quaternary"></rect><rect x="19" y="58" width="4" height="2" fill="#f9e17e" data-fill-palette-color="quaternary"></rect><rect x="17" y="54" width="4" height="2" fill="#f9e17e" data-fill-palette-color="quaternary"></rect></g></svg></g></svg></g><g></g></svg></g></svg></g></svg></g></svg></g><defs></defs></svg><rect width="342.85155851775386" height="342.85155851775386" fill="none" stroke="none" visibility="hidden"></rect></g></svg></g></svg>